<svg xmlns="http://www.w3.org/2000/svg" viewBox="0 0 24 24" fill="currentColor">
  <path d="M8.667 8.667c0 .736-.597 1.333-1.334 1.333S6 9.403 6 8.667s.597-1.334 1.333-1.334 1.334.598 1.334 1.334zm6.666 0c0 .736-.597 1.333-1.333 1.333S12.667 9.403 12.667 8.667s.596-1.334 1.333-1.334S15.333 7.931 15.333 8.667z"/>
  <path d="M10 2C4.477 2 0 5.373 0 9.5c0 2.384 1.444 4.515 3.667 5.856-.222-1.287-.434-3.266.092-4.678C4.48 9.41 6.364 8.333 8.5 8.333c3.038 0 5.5 1.866 5.5 4.167 0 1.15-.5 2.2-1.333 2.917C13.833 18.75 17.5 21 21.5 21c-1-2-1-4-1-4s2-1 2-4c0-4.127-4.477-7.5-10-7.5z"/>
</svg>